<svg version="1.1" id="Layer_1" xmlns="http://www.w3.org/2000/svg" xmlns:xlink="http://www.w3.org/1999/xlink" x="0px" y="0px"
	 width="100%" viewBox="0 0 1024 816" enable-background="new 0 0 1024 816" xml:space="preserve">
<path fill="#000000" opacity="1.000000" stroke="none" 
	d="
M497.417297,171.446594 
	C529.975281,178.586517 556.011353,206.750595 561.369446,239.991058 
	C567.159912,275.913544 555.582703,305.467773 529.083923,329.758240 
	C522.123169,336.138885 521.966858,341.811981 528.584290,348.558533 
	C539.314758,359.498505 550.407898,370.084412 560.550476,381.593842 
	C561.313354,382.459534 562.138306,383.329315 563.592834,383.263275 
	C565.775696,381.713745 566.128357,379.121796 566.799500,376.788086 
	C570.203003,364.954132 573.258728,353.014648 576.904480,341.257294 
	C581.241455,327.270721 590.055359,320.534424 602.888733,320.659363 
	C612.934509,320.757172 621.161011,326.764404 625.359741,336.870514 
	C630.020569,348.088806 630.807861,360.174438 633.261047,371.876343 
	C639.641907,402.313599 645.698669,432.818726 651.905029,463.292633 
	C652.256714,465.019348 652.185303,466.981018 653.982971,468.179810 
	C656.482727,467.460022 656.540466,465.193115 657.039917,463.419525 
	C660.693787,450.444641 664.367126,437.472748 667.782654,424.433960 
	C670.990601,412.187531 676.298889,401.362579 686.740051,393.584564 
	C695.088684,387.365295 704.723999,385.632996 716.676575,384.388092 
	C710.460999,393.404510 708.830322,401.388855 717.384888,408.035339 
	C715.053711,409.927155 713.164673,409.867798 711.373169,410.104980 
	C702.253540,411.312164 695.856323,415.957520 693.281372,424.971893 
	C689.441345,438.415161 685.842590,451.927185 682.116699,465.403198 
	C680.784790,470.220490 679.382690,475.028290 677.035889,479.470978 
	C672.117310,488.782349 664.581848,494.322845 653.830750,493.999725 
	C642.929077,493.672119 635.448547,487.770325 631.058533,477.965912 
	C627.485779,469.986755 626.466492,461.297638 624.726318,452.849487 
	C617.743530,418.949371 611.020081,384.995911 604.152466,351.071960 
	C603.807251,349.366730 603.951355,347.333832 601.730835,346.039917 
	C599.281006,349.074066 598.797119,352.860413 597.819214,356.397583 
	C594.935852,366.826752 592.327576,377.334015 589.321838,387.726898 
	C582.868530,410.040619 559.281372,415.840027 543.265381,399.023438 
	C532.233032,387.439606 521.169617,375.898834 509.757538,364.680786 
	C496.318390,351.470123 495.284058,331.167480 507.189270,316.609039 
	C510.652893,312.373535 514.865356,308.754364 518.689758,304.809235 
	C532.141907,290.932526 539.029846,273.928070 538.271545,255.003799 
	C537.275146,230.138138 525.820862,210.800018 502.731018,199.504181 
	C471.594482,184.271774 432.764893,195.806900 415.652649,225.807007 
	C403.682556,246.792114 404.416901,268.692291 412.288116,290.912476 
	C420.248993,313.385712 434.521301,331.719757 449.964722,349.325775 
	C469.763947,371.897522 491.838806,392.267273 512.542664,413.960541 
	C530.155701,432.415375 547.412537,451.267059 559.642395,473.917145 
	C575.366821,503.039124 580.963318,533.685913 571.315857,566.018921 
	C558.775452,608.047241 515.123108,635.593018 471.455383,630.861572 
	C430.151825,626.386292 395.693268,596.131165 390.322449,551.372803 
	C386.673645,520.964966 396.187408,494.148773 417.446350,471.807587 
	C420.312469,468.795563 423.415497,465.992004 426.557007,463.262421 
	C433.322327,457.384155 433.524231,451.785797 427.069733,445.557892 
	C413.517883,432.481842 399.994171,419.371948 387.925049,404.876892 
	C383.983978,400.143646 380.384613,395.127014 376.572357,390.284607 
	C375.582001,389.026642 374.965790,387.320251 372.524994,386.776245 
	C369.913574,392.854858 369.475006,399.482941 368.346252,405.887238 
	C362.598083,438.500854 357.025360,471.145325 351.343719,503.770752 
	C350.888184,506.386505 350.214172,508.985016 349.400574,511.513947 
	C345.919495,522.333862 337.058044,529.255981 326.677155,529.385010 
	C314.952637,529.530701 305.849213,523.225769 302.075623,511.958282 
	C298.993378,502.755035 298.287781,493.040955 296.856476,483.524689 
	C293.120972,458.688477 289.899780,433.775116 286.448517,408.895935 
	C281.832672,375.621155 277.235291,342.343658 272.492828,309.086884 
	C272.063995,306.079559 272.190186,302.792297 270.354645,299.968811 
	C267.832794,300.820160 268.141632,302.992096 267.815338,304.594177 
	C262.603088,330.188782 257.484436,355.802429 252.332520,381.409302 
	C250.214920,391.934448 247.136459,402.100616 240.790970,410.965485 
	C231.391602,424.096710 218.449249,430.713165 202.433624,430.938446 
	C184.272400,431.193909 166.104858,431.049774 147.940323,430.995697 
	C142.144928,430.978455 137.628967,428.744720 135.267441,423.041931 
	C133.244202,418.156067 134.273239,413.862457 137.664062,410.099121 
	C140.972961,406.426727 145.513962,406.013947 150.087067,406.003845 
	C166.085541,405.968536 182.099197,405.531158 198.078369,406.081146 
	C214.277710,406.638672 222.659958,399.776855 226.588562,383.304596 
	C231.642487,362.114136 235.342361,340.602142 239.712952,319.246552 
	C241.380310,311.099518 243.049545,302.939667 245.138443,294.894836 
	C249.575943,277.805054 264.098541,269.593933 279.294769,275.425903 
	C289.605835,279.383057 293.651642,288.254456 295.134033,298.056824 
	C300.481354,333.415741 305.309723,368.853027 310.369629,404.255615 
	C314.910461,436.026245 319.494080,467.790710 324.078217,499.555115 
	C324.283447,500.977203 324.197906,502.577118 326.261749,503.837280 
	C328.549438,496.557739 329.337128,489.174500 330.599060,481.925507 
	C336.103729,450.303955 341.435486,418.652344 346.923401,387.027832 
	C347.633179,382.937592 348.784637,378.924408 350.728607,375.173218 
	C359.227417,358.773529 381.011292,355.980835 392.419189,370.545593 
	C405.590088,387.361176 419.140808,403.763336 434.526184,418.600189 
	C438.483307,422.416168 442.594391,426.079651 446.432861,430.010315 
	C459.871033,443.771576 459.765289,464.945953 446.263123,478.543579 
	C440.167297,484.682434 433.575989,490.309113 428.388580,497.355499 
	C407.961456,525.103149 409.706696,562.261292 433.519440,587.123901 
	C444.683167,598.779785 458.737488,605.177429 475.283447,606.048218 
	C496.708984,607.175781 515.505981,601.556824 530.926086,586.257385 
	C543.170105,574.109192 549.478516,559.152832 550.745544,542.110596 
	C552.661926,516.334961 544.149719,493.595886 529.760498,472.721649 
	C516.074341,452.867493 499.208771,435.781830 482.384247,418.666168 
	C455.538727,391.356079 427.193481,365.368866 405.924438,333.094604 
	C393.379974,314.059357 384.628723,293.457397 382.389282,270.579407 
	C377.910187,224.820633 404.261902,183.068741 449.670868,171.388245 
	C465.513092,167.313171 481.229248,167.267303 497.417297,171.446594 
z"/>
<path fill="#000000" opacity="1.000000" stroke="none" 
	d="
M827.250000,256.249878 
	C842.480652,240.830917 857.424683,225.625458 872.469543,210.520462 
	C879.737976,203.222946 888.640991,200.692093 898.609863,202.982285 
	C908.304993,205.209595 914.567078,211.369736 917.561157,220.942108 
	C920.977234,231.863495 918.416931,241.411377 910.850708,249.579910 
	C903.722351,257.275818 896.171570,264.579529 888.836060,272.084564 
	C863.458313,298.048553 838.103271,324.034760 812.716858,349.990326 
	C806.009521,356.847992 804.517395,356.837982 797.757874,350.124786 
	C789.484924,341.908630 781.184570,333.719055 772.998169,325.417236 
	C767.108398,319.444336 767.114380,317.271820 772.984070,311.298340 
	C790.960632,293.003967 808.993774,274.765106 827.250000,256.249878 
z"/>
<path fill="#000000" opacity="1.000000" stroke="none" 
	d="
M722.327515,390.424438 
	C728.523315,378.570648 732.059021,366.324860 732.809509,353.357208 
	C732.997375,350.111115 734.032104,348.066376 737.094360,346.860168 
	C743.945557,344.161438 750.019714,339.978638 756.450317,336.474060 
	C758.893799,335.142334 760.511658,333.604584 760.835144,330.416656 
	C761.296753,325.868011 764.421326,324.857910 767.694702,328.084351 
	C777.067200,337.322418 786.338257,346.665955 795.516602,356.097107 
	C798.729797,359.398804 797.793030,362.448029 793.210449,362.967987 
	C789.827637,363.351776 788.315002,365.133392 786.823486,367.677155 
	C783.279602,373.721252 779.963867,379.889618 777.371887,386.388062 
	C776.031006,389.749725 774.180359,391.227509 770.416382,391.481415 
	C756.641235,392.410400 743.437073,395.507446 731.727844,403.321228 
	C729.815552,404.597321 727.663635,405.657562 725.890991,403.596832 
	C723.896851,401.278809 726.515442,400.044586 727.768677,398.768402 
	C735.006042,391.398315 742.378845,384.161072 749.603638,376.778778 
	C751.915527,374.416534 754.272888,372.707611 757.816223,372.852448 
	C761.522461,373.003967 763.403564,370.530396 763.469971,367.202545 
	C763.545532,363.412994 761.259949,360.905609 757.472107,360.394043 
	C753.809265,359.899384 750.539917,361.836212 750.637573,365.321350 
	C750.803223,371.230164 747.063965,374.289948 743.667480,377.845093 
	C737.914246,383.867035 732.187683,389.914825 726.387024,395.890717 
	C724.871033,397.452576 723.524353,400.555542 720.869690,398.792877 
	C718.367676,397.131592 720.253174,394.593262 721.183228,392.510406 
	C721.454163,391.903717 721.813049,391.336334 722.327515,390.424438 
z"/>
</svg>